<?xml version="1.0" encoding="UTF-8"?>
<svg id="Layer_1" data-name="Layer 1" xmlns="http://www.w3.org/2000/svg" viewBox="0 0 569.43 568.13">
  <defs>
    <style>
      .cls-1 {
        fill: #212121;
      }
    </style>
  </defs>
  <path class="cls-1" d="M261.93.65c174.56-11.01,314.34,120.01,307.25,296.25-9.58,238.06-295.16,356.52-473.05,200.97C-90.85,334.38,11.25,16.45,261.93.65ZM459.79,454c131.14-133.7,65.9-366.68-117.83-407.97C158.01,4.69-2.2,169.37,50.22,351.77c51.64,179.68,279.16,235.18,409.57,102.23Z"/>
  <polygon class="cls-1" points="138.64 169.35 203.64 311.36 267.14 169.35 306.14 169.35 306.14 328.85 285.64 378.35 270.14 378.35 270.14 264.35 253.96 297.67 218.14 377.86 189.29 378.19 138.14 266.35 138.14 378.35 99.14 378.35 99.64 169.35 138.64 169.35"/>
  <path class="cls-1" d="M324.14,323.85l56.48-153.52,41.63-.39c16.96,51.49,39.13,101.35,55.91,152.89,1.47,4.53,4.7,11.08,3.53,15.54l-15.71,38.32c-.32,2.49-10.29,1.92-10.72,1.54-.95-.83-6.8-20.14-8.89-23.6-.52-.86-.73-1.83-1.88-2.12l-84.89-.22-2.96,1.04-9.98,25.02h-21c-.11,0-1.5-1.39-1.5-1.5v-53ZM430.14,313.35l-28.01-76-28.99,76h57Z"/>
</svg>